C:/Program Files/Krita (x64)/bin/ffmpeg.exe -hide_banner -y -y -r 6 -start_number 0 -start_number_range 1 -i C:/Users/Rafio/Downloads/html5up-paradigm-shift/images/IdleFoxW%04d.png -c:v libopenh264 -b:v 5000k C:/Users/Rafio/Downloads/html5up-paradigm-shift/images/IdleFoxW.mp4
=====================================================
Input #0, image2, from 'C:/Users/Rafio/Downloads/html5up-paradigm-shift/images/IdleFoxW%04d.png':
  Duration: 00:00:00.28, start: 0.000000, bitrate: N/A
  Stream #0:0: Video: png, rgba(pc), 50x50 [SAR 11811:11811 DAR 1:1], 25 fps, 25 tbr, 25 tbn, 25 tbc
Stream mapping:
  Stream #0:0 -> #0:0 (png (native) -> h264 (libopenh264))
Press [q] to stop, [?] for help
[libopenh264 @ 000002b4b0deac00] Slice count will be set automatically
[libopenh264 @ 000002b4b0deac00] [OpenH264] this = 0x000002B4B0DC97C0, Warning:bEnableFrameSkip = 0,bitrate can't be controlled for RC_QUALITY_MODE,RC_BITRATE_MODE and RC_TIMESTAMP_MODE without enabling skip frame.
Output #0, mp4, to 'C:/Users/Rafio/Downloads/html5up-paradigm-shift/images/IdleFoxW.mp4':
  Metadata:
    encoder         : Lavf58.76.100
  Stream #0:0: Video: h264 (avc1 / 0x31637661), yuv420p(tv, progressive), 50x50 [SAR 1:1 DAR 1:1], q=2-31, 5000 kb/s, 6 fps, 12288 tbn
    Metadata:
      encoder         : Lavc58.134.100 libopenh264
    Side data:
      cpb: bitrate max/min/avg: 5000000/0/5000000 buffer size: 0 vbv_delay: N/A
frame=    1 fps=0.0 q=-0.0 size=       0kB time=00:00:00.00 bitrate=4740.7kbits/s speed=0.0299x    frame=    7 fps=0.0 q=-0.0 Lsize=       2kB time=00:00:01.00 bitrate=  20.3kbits/s speed=89.6x    
video:2kB audio:0kB subtitle:0kB other streams:0kB global headers:0kB muxing overhead: 52.184322%
